<?xml version="1.0" encoding="utf-8"?>
<!-- Generator: Adobe Illustrator 24.3.0, SVG Export Plug-In . SVG Version: 6.00 Build 0)  -->
<svg version="1.1" id="Layer_1" xmlns="http://www.w3.org/2000/svg" xmlns:xlink="http://www.w3.org/1999/xlink" x="0px" y="0px"
	 width="1357.8px" height="243.4px" viewBox="0 0 1357.8 243.4" style="enable-background:new 0 0 1357.8 243.4;"
	 xml:space="preserve">
<style type="text/css">
	.st0{fill:#19A47D;}
	.st1{fill:#E04646;}
	.st2{fill:#F47721;}
	.st3{fill:#070707;}
	.st4{fill:#EE7009;}
	.st5{fill:#0F172A;}
	.st6{fill:#FFFFFF;}
	.st7{fill:#FEFEFE;}
</style>
<g>
	<polygon class="st5" points="367.1,144.2 336.4,144.2 336.4,60 352.7,57.2 352.7,38.9 336.4,38.9 305.2,38.9 291.8,38.9 
		291.8,57.2 305.2,60 305.2,147.1 291.8,149.9 291.8,168.1 391.6,168.1 391.6,126.2 367.8,126.2 	"/>
	<path class="st5" d="M470.5,76.5c-7-4.1-15.4-6.2-25.2-6.2c-9.8,0-18.2,2.1-25.2,6.3c-7,4.2-12.3,9.9-16,17.3
		c-3.7,7.3-5.5,15.8-5.5,25.4v1.8c0,9.7,1.8,18.2,5.5,25.6c3.7,7.4,9,13.1,16.1,17.2c7,4.1,15.5,6.2,25.3,6.2
		c9.8,0,18.1-2.1,25.1-6.2c7-4.1,12.3-9.9,16-17.3c3.7-7.4,5.5-15.9,5.5-25.5v-1.8c0-9.6-1.8-18.1-5.5-25.5
		C482.8,86.4,477.5,80.7,470.5,76.5z M461.1,121c0,5.2-0.5,9.7-1.6,13.5c-1,3.8-2.7,6.7-5,8.7c-2.3,2-5.3,3.1-9.1,3.1
		c-3.9,0-7-1-9.3-3c-2.3-2-4-4.9-5-8.7c-1-3.8-1.5-8.3-1.5-13.6v-1.8c0-5,0.5-9.4,1.5-13.2c1-3.8,2.7-6.7,5-8.8
		c2.3-2.1,5.4-3.2,9.1-3.2c3.8,0,6.9,1.1,9.2,3.2c2.3,2.1,4,5,5,8.8c1,3.8,1.6,8.1,1.6,13.2V121z"/>
	<path class="st5" d="M574.4,72.1h-9.8l-2,12.1c-2.8-4.4-6.1-7.8-10-10.2c-3.9-2.4-8.6-3.6-14.2-3.6c-7.5,0-14,2.1-19.4,6.3
		c-5.4,4.2-9.6,10-12.5,17.5c-2.9,7.5-4.3,16.2-4.3,26.2v1.9c0,9.6,1.5,18,4.4,25.2c2.9,7.2,7.2,12.8,12.7,16.7
		c5.6,4,12.2,5.9,20.1,5.9c4.6,0,8.6-0.9,12.1-2.7c3.5-1.8,6.6-4.4,9.3-7.7v4.5c0,6.1-1.5,10.9-4.5,14.4c-3,3.5-7.7,5.3-14.1,5.3
		c-3.9,0-8.2-0.5-13-1.5c-4.8-1-9.5-2.4-14.2-4.2l-5,21.5c4.9,2.4,10.6,4.2,17,5.4c6.4,1.2,12.2,1.9,17.2,1.9
		c9.8,0,18.2-1.8,25.3-5.3c7.1-3.5,12.6-8.5,16.5-14.9c3.9-6.4,5.8-13.8,5.8-22.4V92.8l10.9-2.3V72.1H592H574.4z M560.8,140.8
		c-1.3,1.8-3,3.1-5.1,3.9c-2.1,0.9-4.5,1.3-7.1,1.3c-5.7,0-9.7-2.1-11.9-6.3c-2.2-4.2-3.3-10.1-3.3-17.7v-1.9
		c0-5.3,0.5-9.8,1.5-13.8c1-3.9,2.6-6.9,4.8-9.1c2.2-2.2,5.2-3.2,8.9-3.2c2.6,0,5,0.5,7.1,1.6c2.1,1.1,3.8,2.7,5.1,4.8V140.8z"/>
	<path class="st5" d="M681.4,76.5c-7-4.1-15.4-6.2-25.2-6.2c-9.8,0-18.2,2.1-25.2,6.3c-7,4.2-12.3,9.9-16,17.3
		c-3.7,7.3-5.5,15.8-5.5,25.4v1.8c0,9.7,1.8,18.2,5.5,25.6c3.7,7.4,9,13.1,16.1,17.2c7,4.1,15.5,6.2,25.3,6.2
		c9.8,0,18.1-2.1,25.1-6.2c7-4.1,12.3-9.9,16-17.3c3.7-7.4,5.5-15.9,5.5-25.5v-1.8c0-9.6-1.8-18.1-5.5-25.5
		C693.7,86.4,688.4,80.7,681.4,76.5z M672,121c0,5.2-0.5,9.7-1.6,13.5c-1,3.8-2.7,6.7-5,8.7c-2.3,2-5.3,3.1-9.1,3.1
		c-3.9,0-7-1-9.3-3c-2.3-2-4-4.9-5-8.7c-1-3.8-1.5-8.3-1.5-13.6v-1.8c0-5,0.5-9.4,1.5-13.2c1-3.8,2.7-6.7,5-8.8
		c2.3-2.1,5.4-3.2,9.1-3.2c3.8,0,6.9,1.1,9.2,3.2c2.3,2.1,4,5,5,8.8c1,3.8,1.6,8.1,1.6,13.2V121z"/>
	<path class="st0" d="M849.2,55.8c-5.6-5.9-12.2-10.5-19.7-13.8c-7.5-3.3-15.6-5-24.4-5c-8.9,0-17.1,1.7-24.6,5
		c-7.5,3.3-13.9,7.9-19.4,13.8c-5.5,5.9-9.7,12.8-12.7,20.8c-3,7.9-4.5,16.5-4.5,25.8v2c0,9.3,1.5,18,4.5,26c3,8,7.2,14.9,12.7,20.8
		c5.5,5.9,12,10.5,19.5,13.8c7.5,3.3,15.7,4.9,24.6,4.9c8.7,0,16.8-1.6,24.3-4.9c7.5-3.3,14.1-7.9,19.7-13.8
		c5.6-5.9,10-12.9,13.1-20.8c3.1-8,4.7-16.6,4.7-26v-2c0-9.3-1.6-17.9-4.7-25.8C859.3,68.7,854.9,61.8,849.2,55.8z M836.1,104.5
		c0,8.4-1.2,15.7-3.6,22c-2.4,6.3-5.9,11.2-10.6,14.6c-4.6,3.5-10.2,5.2-16.7,5.2c-6.9,0-12.5-1.7-17-5.2c-4.5-3.5-7.8-8.3-9.9-14.6
		c-2.2-6.3-3.2-13.6-3.2-22v-2.2c0-8.4,1.1-15.7,3.2-21.9c2.1-6.2,5.4-11,9.8-14.5c4.4-3.4,10.1-5.1,17-5.1c6.6,0,12.2,1.7,16.8,5.2
		c4.6,3.5,8.1,8.4,10.6,14.6c2.5,6.2,3.7,13.5,3.7,21.7V104.5z"/>
	<path class="st0" d="M971.9,72.1h-31.1h-10.5v18.3l10.5,2.8v47.7c-1.8,1.7-3.8,3-6.1,3.9c-2.3,0.9-4.6,1.3-6.9,1.3
		c-4,0-6.9-1.2-8.9-3.7c-2-2.5-3-6-3-10.8V72.1h-31.1h-10.3v18.3l10.3,2.8v38.2c0,13.1,2.8,22.8,8.5,29.1c5.7,6.3,13.5,9.4,23.4,9.4
		c5.5,0,10.5-1.1,14.9-3.3c4.4-2.2,8.1-5.4,11.2-9.5l2,10.9h39v-18.2l-12-2.8V72.1z"/>
	<path class="st0" d="M1043.2,144.8c-1.1,0.1-2.1,0.2-3.2,0.2c-2.5,0-4.4-0.6-5.9-1.9s-2.1-3.4-2.1-6.6v-43h15.7V72.1H1032V48.4h-31
		v23.7h-12v21.5h12v43.1c0,11.6,2.6,20.1,7.9,25.4c5.2,5.4,12.9,8,22.9,8c2.9,0,5.7-0.2,8.5-0.7c2.8-0.4,5.5-1.1,8.2-1.8l-2.1-23.2
		C1045.3,144.6,1044.2,144.7,1043.2,144.8z"/>
	<polygon class="st0" points="1097.9,29.7 1053.3,29.7 1053.3,47.9 1066.8,50.8 1066.8,147.1 1055.4,149.9 1055.4,168.1 
		1109.2,168.1 1109.2,149.9 1097.9,147.1 	"/>
	<path class="st0" d="M1180.7,75.3c-6-3.3-13.4-5-22-5c-9.6,0-17.8,2.1-24.4,6.3c-6.6,4.2-11.7,10.1-15.1,17.6
		c-3.4,7.5-5.1,16.1-5.1,25.9v3.3c0,8.9,1.9,16.8,5.8,23.9c3.9,7,9.3,12.6,16.3,16.6c7,4.1,15.2,6.1,24.6,6.1c7.6,0,14.6-1,20.8-3
		c6.2-2,11.5-4.6,15.8-7.6l-7.1-18.8c-4.3,2-8.4,3.5-12.3,4.4c-3.9,0.9-7.8,1.4-11.8,1.4c-4.1,0-7.5-0.7-10.3-2
		c-2.8-1.4-5-3.2-6.5-5.5c-1.6-2.3-2.6-5-3.1-8l0.1-0.6h52.8V114c0-9.5-1.6-17.4-4.7-23.9C1191.2,83.6,1186.7,78.7,1180.7,75.3z
		 M1170.7,110.8h-24.4l-0.4-0.4c0.4-3.4,1-6.4,1.8-9c0.9-2.6,2.2-4.7,4.1-6.2c1.9-1.5,4.4-2.3,7.5-2.3c2.9,0,5.2,0.6,6.8,1.8
		c1.7,1.2,2.8,2.9,3.5,5.2c0.7,2.3,1,5.2,1,8.6V110.8z"/>
	<path class="st0" d="M1261.5,144.8c-1.1,0.1-2.1,0.2-3.2,0.2c-2.5,0-4.4-0.6-5.9-1.9s-2.1-3.4-2.1-6.6v-43h15.7V72.1h-15.7V48.4
		h-31v23.7h-12v21.5h12v43.1c0,11.6,2.6,20.1,7.9,25.4c5.2,5.4,12.9,8,22.9,8c2.9,0,5.7-0.2,8.5-0.7c2.8-0.4,5.5-1.1,8.2-1.8
		l-2.1-23.2C1263.7,144.6,1262.6,144.7,1261.5,144.8z"/>
	<path class="st0" d="M1349.5,119.5c-5.5-4.3-13.8-7.7-24.7-10.1c-4.6-1-8-2.1-10.4-3.3c-2.4-1.2-3.9-2.4-4.7-3.7
		c-0.8-1.3-1.2-2.6-1.2-3.9c0-2.2,0.9-4.1,2.8-5.5c1.8-1.4,4.7-2.1,8.7-2.1c2.1,0,4.1,0.2,5.8,0.7c1.7,0.5,3.3,1.2,4.6,2.1l2.7,12.4
		h20.9l0.1-28.9c-4.2-1.9-9.6-3.5-16.1-4.7c-6.5-1.2-13.4-1.9-20.6-1.9c-9.5,0-17,1.4-22.7,4.2c-5.6,2.8-9.7,6.5-12.2,11
		c-2.5,4.6-3.7,9.5-3.7,14.9c0,7.9,2.7,14.5,8,19.8c5.3,5.3,13.6,9,24.8,11.2c7,1.3,11.6,2.8,13.8,4.5c2.2,1.7,3.2,3.5,3.2,5.5
		c0,2.1-0.9,3.8-2.8,5.1c-1.9,1.4-5.4,2-10.4,2c-2.7,0-5.1-0.3-7-0.8c-2-0.6-3.5-1.2-4.8-2l-3.5-13.9h-21l0.4,29.9
		c5.3,2.4,11.2,4.3,17.7,5.7c6.5,1.4,13.6,2.1,21.2,2.1c12.9,0,22.7-2.8,29.5-8.3c6.8-5.5,10.2-13,10.2-22.5
		C1357.8,130.3,1355,123.8,1349.5,119.5z"/>
	<path class="st5" d="M90,117.7c0.1-24.2,19.5-43,44-42.9c23.5,0.2,42.8,20,42.5,43.7c-0.3,23.6-20,43.3-43.4,43.2
		C109.1,161.6,89.9,141.9,90,117.7z"/>
	<path class="st0" d="M92.3,155.8c-12.6,29.8-24.5,57.7-37.2,87.5c-4.9-12.8-9.4-24-13.5-35.4c-1.7-4.7-4.2-7.8-8.7-10.2
		c-10.6-5.7-20.9-11.9-33-18.9C31.5,171.1,61.1,163.7,92.3,155.8z"/>
	<g>
		<path class="st0" d="M133.3,0C68.1,0,15,53.1,15,118.3c0,13.9,2.4,27.3,6.9,39.7l39.1-9.8c-3.8-9.2-6-19.3-6-29.9
			C55,75.1,90.1,40,133.3,40c43.2,0,78.3,35.1,78.3,78.3c0,43.2-35.1,78.3-78.3,78.3c-13.7,0-26.6-3.5-37.8-9.8l-15.7,37
			c16.1,8.2,34.3,12.8,53.5,12.8c65.2,0,118.3-53,118.3-118.3C251.5,53.1,198.5,0,133.3,0z"/>
	</g>
</g>
</svg>
