<svg id="Layer_1" data-name="Layer 1" xmlns="http://www.w3.org/2000/svg" viewBox="0 0 739.75824 172.93407"><defs><style>.cls-1{fill:#ff2a40;}.cls-2,.cls-3{fill:#fff;}.cls-2{opacity:0.25;}.cls-3{opacity:0.15;}</style></defs><path class="cls-1" d="M382.85367,23.68661Q368.399,9.30029,347.67093,9.29971q-20.73046,0-35.11548,14.3869-14.3888,14.38962-14.3869,35.25171,0,20.86478,14.3869,35.2522,14.38641,14.38962,35.11548,14.3869,20.72881,0,35.18274-14.3869,14.45479-14.38632,14.45581-35.2522Q397.30948,38.07354,382.85367,23.68661ZM369.6276,81.37155a31.80143,31.80143,0,0,1-43.91236,0q-8.86605-8.79693-8.86365-22.43323a37.37115,37.37115,0,0,1,.4906-6.10919c4.00794-18.66443,22.15583-4.18262,22.15583-4.18262-4.19391-17.845,3.64819-20.706,7.60278-21.06128.19061-.00287.37811-.0122.57013-.0122a29.8253,29.8253,0,0,1,21.95667,8.86419q8.86047,8.86606,8.8626,22.5011Q378.4902,72.57729,369.6276,81.37155Z"/><path d="M27.50474,88.66731H63.91567v18.00086H8.68547V11.20849H27.50474Z"/><path d="M126.94412,98.1448a34.99684,34.99684,0,0,1-25.638,10.43265A35.62525,35.62525,0,0,1,65.30443,72.57573a35.62526,35.62526,0,0,1,36.00171-36.00224,35.74051,35.74051,0,0,1,36.13848,36.00224A34.65637,34.65637,0,0,1,126.94412,98.1448ZM88.14633,86.07638A17.73069,17.73069,0,0,0,101.30614,91.395a17.96133,17.96133,0,0,0,13.2282-5.31863A18.29391,18.29391,0,0,0,119.853,72.57573a18.29429,18.29429,0,0,0-5.31863-13.50117,17.9588,17.9588,0,0,0-13.2282-5.3181,17.7282,17.7282,0,0,0-13.15981,5.3181,18.41936,18.41936,0,0,0-5.25025,13.50117A18.419,18.419,0,0,0,88.14633,86.07638Z"/><path d="M197.1199,38.48276h17.18245v64.91282q0,15.81755-10.43212,24.13684-10.43239,8.31664-25.16039,8.31877a42.64032,42.64032,0,0,1-19.43255-4.2267,29.56718,29.56718,0,0,1-12.88737-12.40978l15.00072-8.59228q5.1816,9.54426,17.86463,9.54639,8.31664,0,13.09144-4.36346,4.77213-4.36663,4.77319-12.40978V96.03092q-7.77281,10.3664-21.81941,10.3648a32.18638,32.18638,0,0,1-24.20575-10.1602,34.40488,34.40488,0,0,1-9.75047-24.75065,34.3558,34.3558,0,0,1,9.81885-24.68333,32.14959,32.14959,0,0,1,24.13737-10.22805q14.04448,0,21.81941,10.36427Zm-32.797,46.43385a20.51167,20.51167,0,0,0,27.4105,0,17.94513,17.94513,0,0,0,5.38647-13.43174,17.78589,17.78589,0,0,0-5.38647-13.29657,20.51321,20.51321,0,0,0-27.4105,0,17.77643,17.77643,0,0,0-5.387,13.29657A17.93564,17.93564,0,0,0,164.32293,84.91661Z"/><path class="cls-2" d="M381.44981,25.35893l-9.92412,9.92412c6.0576,6.25041,9.13566,14.20291,9.13566,23.65528,0,9.64711-3.19733,17.71251-9.50505,23.97465a33.97114,33.97114,0,0,1-46.97026,0c-.0489-.0485-.09362-.09946-.14212-.14816l-9.921,9.92108a47.95723,47.95723,0,0,0,67.1989-.03465c9.16793-9.12446,13.81657-20.4667,13.81657-33.71292C395.13837,45.75838,390.53048,34.46285,381.44981,25.35893Z"/><path class="cls-1" d="M451.28451,38.48276h17.59165v68.18541H451.28451V99.03106q-6.41161,9.54745-20.31935,9.54639-11.18375,0-18.47791-7.50036-7.29735-7.4977-7.29681-20.72855V38.48276h17.59271V78.16681q0,6.82029,3.6818,10.43266,3.68127,3.61447,9.81884,3.61289,6.81711,0,10.90971-4.2267,4.08995-4.22512,4.091-12.68223Z"/><path class="cls-1" d="M519.19694,55.39276H503.787V83.75789q0,3.54769,1.77253,5.18188a8.13813,8.13813,0,0,0,5.18187,1.84143,76.17356,76.17356,0,0,0,8.45553-.06891v15.95588q-18.13922,2.045-25.57013-3.40935-7.4341-5.45273-7.43145-19.50093V55.39276H474.33048v-16.91h11.86488V24.70914L503.787,19.391V38.48276h15.40993Z"/><path class="cls-1" d="M528.8239,106.66817V7.11749h17.59165v99.55068Z"/><path class="cls-1" d="M572.93872,79.80364q3.54452,12.81846,19.22848,12.81793,10.08971,0,15.27317-6.81764l14.1823,8.182q-10.09288,14.59311-29.72792,14.59151-16.91159,0-27.138-10.228-10.22805-10.22805-10.22805-25.77367,0-15.40885,10.09129-25.70635,10.09129-10.29483,25.91043-10.29589,15.00018,0,24.75171,10.36427,9.74781,10.3656,9.74993,25.638a41.25453,41.25453,0,0,1-.68166,7.22791Zm-.27245-13.6374h34.7741q-1.50271-6.95546-6.20489-10.36427a17.79616,17.79616,0,0,0-10.7051-3.40935,18.51061,18.51061,0,0,0-11.72813,3.614A17.26346,17.26346,0,0,0,572.66627,66.16624Z"/><path class="cls-1" d="M671.125,55.39276H655.71511V83.75789q0,3.54769,1.77253,5.18188a8.13813,8.13813,0,0,0,5.18187,1.84143,76.17356,76.17356,0,0,0,8.45553-.06891v15.95588q-18.13922,2.045-25.57013-3.40935-7.4341-5.45273-7.43145-19.50093V55.39276H626.25858v-16.91h11.86488V24.70914l17.59165-5.3181V38.48276H671.125Z"/><path class="cls-1" d="M695.88841,57.84747q0,2.72955,3.61395,4.43184a47.9328,47.9328,0,0,0,8.79583,3.00014,91.7614,91.7614,0,0,1,10.3648,3.27312,20.13511,20.13511,0,0,1,8.79583,6.6141,18.29453,18.29453,0,0,1,3.614,11.59137q0,10.50315-7.84171,16.15942-7.84278,5.65788-19.56878,5.66-21.00312,0-28.63812-16.22833l15.27317-8.59123q2.99909,8.86686,13.365,8.86368,9.40909,0,9.40963-5.86353,0-2.72557-3.614-4.43237a51.78042,51.78042,0,0,0-8.79583-3.068,91.579,91.579,0,0,1-10.3648-3.40935A21.24732,21.24732,0,0,1,681.5015,69.371a17.00766,17.00766,0,0,1-3.61395-11.11431q0-10.0905,7.43251-15.88751,7.43092-5.79462,18.47791-5.79568a30.90158,30.90158,0,0,1,15.13747,3.75017,27.4324,27.4324,0,0,1,10.773,10.70511l-15.00072,8.18255A11.21992,11.21992,0,0,0,703.798,52.25639a9.99324,9.99324,0,0,0-5.65892,1.50007A4.67961,4.67961,0,0,0,695.88841,57.84747Z"/><path d="M304.12642,165.81658a61.59519,61.59519,0,0,1-54.74254-33.17119l-.503-.96153,15.393-8.04739.503.96259a44.38706,44.38706,0,0,0,78.70606-.01378l.50249-.96259,15.39615,8.04-.5025.96259A61.59155,61.59155,0,0,1,304.12642,165.81658Z"/><path d="M283.523,47.00613a36.03654,36.03654,0,0,0-61.63971,25.56958A36.20971,36.20971,0,0,0,283.523,98.1448a34.65639,34.65639,0,0,0,10.50049-25.56909A34.6575,34.6575,0,0,0,283.523,47.00613ZM271.11319,86.07638A17.96135,17.96135,0,0,1,257.885,91.395a17.73056,17.73056,0,0,1-13.15979-5.31861A18.41892,18.41892,0,0,1,239.475,72.57571c0-.41333.02966-.81055.04974-1.21289,1.19971-8.6637,13.54388-3.44952,13.54388-3.44952-3.42865-12.68579,3.69172-14.00305,5.20942-14.14a17.891,17.891,0,0,1,12.8352,5.30127,18.29415,18.29415,0,0,1,5.3186,13.50116A18.29387,18.29387,0,0,1,271.11319,86.07638Z"/><path class="cls-3" d="M282.089,48.64654l-9.18,9.18a20.49009,20.49009,0,0,1,5.694,14.7492,20.46884,20.46884,0,0,1-5.9547,15.0357A20.13633,20.13633,0,0,1,257.885,93.56614a19.904,19.904,0,0,1-14.70494-5.96425l-.02193-.02451-9.16693,9.16693a33.93048,33.93048,0,0,0,57.86115-24.16858A32.27853,32.27853,0,0,0,282.089,48.64654Z"/></svg>