<svg id="Layer_1" data-name="Layer 1" xmlns="http://www.w3.org/2000/svg" viewBox="0 0 1334.69 243.71"><defs><style>.cls-1{fill:#19a47d;}.cls-2{fill:#0f172a;}</style></defs><path class="cls-1" d="M92.29,156.2C79.64,186,67.76,213.94,55.12,243.71c-4.92-12.82-9.42-24-13.48-35.36A17.18,17.18,0,0,0,33,198.19c-10.61-5.67-20.9-11.93-33-18.9Z"/><polygon class="cls-2" points="324.12 52.96 293.95 52.96 293.95 183.57 370 183.57 370 157.75 324.12 157.75 324.12 52.96"/><path class="cls-2" d="M448.79,90A59,59,0,0,0,395,90a47,47,0,0,0-18.5,18.14,52.21,52.21,0,0,0-6.7,26.49,51.94,51.94,0,0,0,6.7,26.44A47.4,47.4,0,0,0,395,179.18a58.61,58.61,0,0,0,53.81,0A47.25,47.25,0,0,0,467.42,161a55,55,0,0,0,0-52.89A47,47,0,0,0,448.79,90Zm-6.88,57.68a21,21,0,0,1-8.12,8.78,22.85,22.85,0,0,1-11.89,3.1,22.4,22.4,0,0,1-11.8-3.1,21.51,21.51,0,0,1-8.07-8.78,28.13,28.13,0,0,1-2.93-13,28.58,28.58,0,0,1,2.84-13,21.4,21.4,0,0,1,8-8.88,22.46,22.46,0,0,1,31.94,8.88,30.68,30.68,0,0,1,0,26Z"/><path class="cls-2" d="M553.23,95.86a34.36,34.36,0,0,0-11.71-8.78,39.19,39.19,0,0,0-16.6-3.6,43.66,43.66,0,0,0-23.56,6.35,45,45,0,0,0-16.55,18,56.89,56.89,0,0,0-6.12,26.31,58.81,58.81,0,0,0,5.73,26.35,44.3,44.3,0,0,0,16,18.19A44.3,44.3,0,0,0,540,182.11a36,36,0,0,0,13-9c.32-.35.62-.71.92-1.07l.06,12.64a19,19,0,0,1-2.22,9.46,14.58,14.58,0,0,1-6.48,6,21.89,21.89,0,0,1-10,2,23.54,23.54,0,0,1-8.66-1.38,21.72,21.72,0,0,1-6.87-4,13.63,13.63,0,0,1-4.09-6H483.66a36.7,36.7,0,0,0,8.7,18.06A46.3,46.3,0,0,0,509.93,221a61.22,61.22,0,0,0,23.78,4.31q15.43.08,26.17-4.75a35.25,35.25,0,0,0,16.24-14q5.5-9.13,5.5-22.27V85.61H553.23Zm-1.69,51.24a23.94,23.94,0,0,1-8.65,9.19A22.57,22.57,0,0,1,531,159.61a21.22,21.22,0,0,1-11.67-3.32,23.34,23.34,0,0,1-8.21-9.19,29.38,29.38,0,0,1,0-25.95,22.51,22.51,0,0,1,8.3-9.05,22,22,0,0,1,11.75-3.24,22.64,22.64,0,0,1,12,3.28,23.46,23.46,0,0,1,8.56,9.1,26,26,0,0,1,3.07,12.91A26.58,26.58,0,0,1,551.54,147.1Z"/><path class="cls-2" d="M669.64,90a59,59,0,0,0-53.77,0,47.11,47.11,0,0,0-18.5,18.14,52.21,52.21,0,0,0-6.7,26.49,51.94,51.94,0,0,0,6.7,26.44,47.47,47.47,0,0,0,18.5,18.15,58.63,58.63,0,0,0,53.82,0A47.38,47.38,0,0,0,688.28,161a55.07,55.07,0,0,0,0-52.89A46.88,46.88,0,0,0,669.64,90Zm-6.87,57.68a21.1,21.1,0,0,1-8.12,8.78,22.87,22.87,0,0,1-11.89,3.1,22.37,22.37,0,0,1-11.8-3.1,21.47,21.47,0,0,1-8.08-8.78,28.13,28.13,0,0,1-2.93-13,28.58,28.58,0,0,1,2.84-13,21.47,21.47,0,0,1,8-8.88,22.47,22.47,0,0,1,31.95,8.88,30.78,30.78,0,0,1,0,26Z"/><path class="cls-1" d="M839.25,59.44q-15.39-8.61-35.09-8.61T769,59.44a61.43,61.43,0,0,0-24.09,24q-8.65,15.39-8.56,34.83-.09,19.42,8.56,34.82a61.37,61.37,0,0,0,24.09,24q15.43,8.61,35.14,8.61t35.14-8.61a61.37,61.37,0,0,0,24.09-24Q872,137.7,872,118.27t-8.7-34.83A61.69,61.69,0,0,0,839.25,59.44Zm-3.68,79.45a35.65,35.65,0,0,1-50,14.16,35,35,0,0,1-12.83-14.16,44.62,44.62,0,0,1-4.65-20.62,45,45,0,0,1,4.65-20.68,35.77,35.77,0,0,1,50-14.15,34.26,34.26,0,0,1,12.82,14.15,45.2,45.2,0,0,1,4.62,20.68A44.86,44.86,0,0,1,835.57,138.89Z"/><path class="cls-1" d="M943.91,139.83a22,22,0,0,1-2.35,10.29,18,18,0,0,1-6.3,7,16.13,16.13,0,0,1-8.92,2.53,16.8,16.8,0,0,1-8.51-2.08,14.2,14.2,0,0,1-5.68-6.17,21.17,21.17,0,0,1-2-9.58V85.61H881.8v63.27A42.55,42.55,0,0,0,886,168.31a30.36,30.36,0,0,0,12,12.87,35.3,35.3,0,0,0,18.06,4.52,37.35,37.35,0,0,0,15.09-3.06,32.18,32.18,0,0,0,11.93-8.92c.52-.61,1-1.25,1.46-1.89v11.74H972.4v-98H943.91Z"/><polygon class="cls-1" points="1023.95 61.21 995.82 61.21 995.82 85.61 979.14 85.61 979.14 109.48 995.82 109.48 995.82 183.57 1023.95 183.57 1023.95 109.48 1040.72 109.48 1040.72 85.61 1023.95 85.61 1023.95 61.21"/><polygon class="cls-1" points="1047.82 47.72 1047.82 70.35 1047.82 160.94 1047.82 183.57 1076.21 183.57 1076.3 183.57 1076.3 47.72 1076.21 47.72 1047.82 47.72"/><path class="cls-1" d="M1164.68,90.76q-12.17-7.19-28.49-7.1a51.17,51.17,0,0,0-26,6.48,47.72,47.72,0,0,0-18.23,18.23,52,52,0,0,0-6.66,26.22,53,53,0,0,0,6.61,26.62,47.28,47.28,0,0,0,18.19,18.15,52.58,52.58,0,0,0,26.22,6.52,57.5,57.5,0,0,0,23.21-4.48,48.91,48.91,0,0,0,17.74-12.56,39.77,39.77,0,0,0,9.28-18.19h-29.64a15.06,15.06,0,0,1-4,6,22,22,0,0,1-7,4.35,24,24,0,0,1-8.92,1.64,22,22,0,0,1-11.71-2.75,20.76,20.76,0,0,1-8-8.12,23.5,23.5,0,0,1-2.84-10.34h72.81q1.59-17.2-4.35-30.34A44.14,44.14,0,0,0,1164.68,90.76Zm-39.18,17.92a22.51,22.51,0,0,1,11.58-2.84,21.48,21.48,0,0,1,10.61,2.4,19.15,19.15,0,0,1,7.41,7,20,20,0,0,1,2.78,8.3h-43.09a22.18,22.18,0,0,1,2.51-6.65A21.52,21.52,0,0,1,1125.5,108.68Z"/><polygon class="cls-1" points="1233.62 61.21 1205.49 61.21 1205.49 85.61 1188.81 85.61 1188.81 109.48 1205.49 109.48 1205.49 183.57 1233.62 183.57 1233.62 109.48 1250.39 109.48 1250.39 85.61 1233.62 85.61 1233.62 61.21"/><path class="cls-1" d="M1328.3,134.9q-6.39-7.32-19.34-10.42l-16-3.73a14.06,14.06,0,0,1-6.3-3.28,6.92,6.92,0,0,1-2.13-5.06,7.77,7.77,0,0,1,1.25-4.26,8.77,8.77,0,0,1,3.28-3.06,10.63,10.63,0,0,1,4.79-1.2,11.86,11.86,0,0,1,5.77,1.46,11.21,11.21,0,0,1,4.26,4.17,15.06,15.06,0,0,1,1.95,6.08H1334a34.56,34.56,0,0,0-5.73-17,32,32,0,0,0-13.48-11.14,47.2,47.2,0,0,0-19.75-3.9,46.34,46.34,0,0,0-20.31,4.26,33.52,33.52,0,0,0-13.85,11.8,30.16,30.16,0,0,0-5,17,26.84,26.84,0,0,0,3,13,25.94,25.94,0,0,0,9,9.45,48.64,48.64,0,0,0,15.18,6.08l14.73,3.37a14.37,14.37,0,0,1,6.25,3.29,7.55,7.55,0,0,1,2.26,5.41,6.61,6.61,0,0,1-1.15,4.17,8.34,8.34,0,0,1-3.59,2.8,13.39,13.39,0,0,1-5.37,1,13.92,13.92,0,0,1-11.76-5.6,13.34,13.34,0,0,1-2.53-5.94h-28.13a32.8,32.8,0,0,0,6.57,16.59A36.72,36.72,0,0,0,1275,181.4a50.89,50.89,0,0,0,20.76,4,47.94,47.94,0,0,0,20.24-4.08A32.8,32.8,0,0,0,1329.76,170a28.66,28.66,0,0,0,4.93-16.55Q1334.69,142.22,1328.3,134.9Z"/><path class="cls-2" d="M90,118c.14-24.24,19.45-43,44-42.86,23.48.17,42.79,20,42.53,43.71s-20,43.3-43.37,43.17A43.51,43.51,0,0,1,90,118Z"/><path class="cls-1" d="M133.28,0A118.27,118.27,0,0,0,21.89,158L61,148.21a78.35,78.35,0,1,1,34.48,38.55l-15.69,37A118.26,118.26,0,1,0,133.28,0Z"/></svg>