<?xml version="1.0" encoding="utf-8"?>
<!-- Generator: Adobe Illustrator 24.3.0, SVG Export Plug-In . SVG Version: 6.00 Build 0)  -->
<svg version="1.1" id="Layer_1" xmlns="http://www.w3.org/2000/svg" xmlns:xlink="http://www.w3.org/1999/xlink" x="0px" y="0px"
	 width="74.3px" height="74.3px" viewBox="0 0 74.3 74.3" style="enable-background:new 0 0 74.3 74.3;" xml:space="preserve">
<style type="text/css">
	.st0{fill:#FF2A40;}
	.st1{opacity:0.25;fill:#FFFFFF;enable-background:new    ;}
	.st2{opacity:0.15;fill:#FFFFFF;enable-background:new    ;}
</style>
<g>
	<path class="st0" d="M61.3,23.5c-0.6-0.7-1.2-1.4-1.8-2.1c-0.4-0.5-0.5-1.1-0.3-1.7c0.3-0.7,0.9-1,1.6-1c2,0,4.1,0.1,6.1,0.2
		c0.7,0,1.5,0,2.2,0c1.5,0,2.4,1.1,2.1,2.6c-0.4,2.5-0.7,5-1.1,7.5c-0.1,0.8-0.4,1.5-1.3,1.8c-0.8,0.3-1.5,0-2.1-0.7
		c-0.5-0.6-1.1-1.2-1.7-1.8c-2.1,1.7-4.1,3.5-6.1,5.2c-3.6,3-7.2,6.1-10.8,9.2c-1.9,1.6-3.8,3.2-5.7,4.8c-0.1,0.1-0.2,0.3-0.2,0.5
		c-0.5,2.4-2.5,4.2-4.9,4.2c-2.6,0-4.7-1.9-5-4.5c0-0.2-0.2-0.5-0.3-0.7c-4-3.4-7.9-6.8-11.9-10.1c-0.2-0.1-0.5-0.2-0.7-0.2
		c-1.6,0.3-2.9-0.2-4.1-1.3c-0.1-0.1-0.4-0.2-0.5-0.1c-2.8,0.4-5.7,0.8-8.5,1.1c-1.2,0.2-2.3-0.1-3-1.2c-0.6-0.9-0.5-2.2,0.1-3.1
		c0.6-0.9,1.6-1.1,2.6-1.2c2.3-0.3,4.6-0.7,6.9-0.9c1-0.1,1.6-0.4,2.2-1.2c1-1.4,2.6-1.8,4.2-1.5c1.8,0.3,3.1,1.4,3.7,3.1
		c0.1,0.2,0.1,0.3,0.1,0.5c0,1.2,0.8,1.9,1.7,2.6c3.5,2.9,7.1,5.9,10.6,8.8c0.3,0.2,0.5,0.3,0.9,0.2c0.5-0.1,1.1-0.1,1.7,0
		c0.4,0.1,0.7,0,1-0.3c3-2.6,6-5.2,9.1-7.8C52.5,30.9,56.9,27.3,61.3,23.5C61.2,23.6,61.3,23.6,61.3,23.5z M34.9,47.5
		c0,1.4,1.2,2.5,2.6,2.4c1.3-0.1,2.4-1.2,2.3-2.4c0-1.4-1.2-2.5-2.7-2.4C35.9,45.1,34.9,46.2,34.9,47.5z M21,32.1
		c0-1.4-1-2.4-2.3-2.4c-1.3,0-2.4,1.1-2.4,2.4c0,1.3,1.1,2.4,2.5,2.4C19.7,34.5,21.1,33.5,21,32.1z"/>
	<path class="st0" d="M65.1,33.5c0,1.9,0,3.7,0,5.5c0,10.9,0,21.8,0,32.7c0,1.3-0.5,1.8-1.8,1.8c-2.6,0-5.3,0-7.9,0
		c-1.1,0-1.7-0.6-1.7-1.7c0-9.3,0-18.7,0-28c0-0.4,0.1-0.6,0.4-0.9c2.8-2.4,5.7-4.8,8.5-7.2C63.4,35,64.2,34.3,65.1,33.5z"/>
	<path class="st0" d="M8.2,56.7c0-5,0-10,0-15c0-1.5,0.9-2.1,2.1-2.1c1,0,2-0.2,3-0.1c1.4,0.1,2.7,0.4,4.1,0.6
		c0.6,0.1,1.2,0.1,1.5,0.7c0.2,0.3,0.4,0.7,0.4,1.1c0,10,0,20,0,30c0,1-0.6,1.6-1.6,1.6c-2.7,0-5.3,0-8,0c-1,0-1.6-0.6-1.6-1.8
		C8.2,66.7,8.2,61.7,8.2,56.7z"/>
	<path class="st0" d="M37.9,0.8c0,1.4,0,2.8,0,4.2C40.6,5,43,5.7,45,7.6c-1,1.2-2,2.4-3,3.6c-0.7-0.3-1.4-0.7-2.1-0.9
		c-1.7-0.6-3.4-0.9-5.1-0.4c-1.2,0.4-1.8,1.2-1.7,2.3c0.2,1,0.9,1.5,1.8,1.8c1.8,0.6,3.5,1.1,5.3,1.7c1.5,0.5,3,1.1,4.2,2.2
		c1.3,1.1,1.9,2.5,2.1,4.1c0.2,2.9-0.6,5.4-2.8,7.4c-1.6,1.5-3.6,2.2-5.8,2.4c0,1.3,0,2.7,0,4c-1.1,0-2.2,0-3.3,0c0-1.4,0-2.7,0-4
		c-3-0.4-5.7-1.4-7.9-3.6c1.3-1.2,2.5-2.3,3.7-3.4c0.9,0.5,1.7,1.1,2.5,1.5c2,0.9,4.2,1.1,6.3,0.3c1.9-0.7,2.5-3,1.2-4.3
		c-0.6-0.6-1.4-0.9-2.2-1.2c-1.9-0.7-3.9-1.3-5.8-2c-1.3-0.5-2.4-1.2-3.3-2.2c-1.4-1.5-1.7-3.4-1.5-5.3c0.3-2.9,1.8-4.9,4.5-6
		c0.8-0.3,1.6-0.4,2.4-0.7c0-1.3,0-2.7,0-4.1C35.6,0.8,36.7,0.8,37.9,0.8z"/>
	<path class="st0" d="M23.6,45.1c1.4,1.1,2.7,2.1,4,3.1c0.7,0.5,1.1,1.1,1.4,2c0.9,2.6,2.7,4.3,5.3,5.2c0.4,0.1,0.5,0.3,0.5,0.7
		c0,5.2,0,10.5,0,15.7c0,1.2-0.6,1.7-1.7,1.7c-2.5,0-5.1,0-7.6,0c-1.2,0-1.8-0.6-1.8-1.8c0-8.8,0-17.5,0-26.3
		C23.6,45.3,23.6,45.3,23.6,45.1z"/>
	<path class="st0" d="M49.3,47.1c0,0.2,0,0.4,0,0.5c0,8.1,0,16.1,0,24.2c0,1.2-0.6,1.8-1.8,1.8c-2.3,0-4.6,0-6.9,0
		c-1,0-1.6-0.6-1.6-1.5c0-5.3,0-10.5,0-15.8c0-0.1,0-0.1,0-0.2c1.3-0.3,2.6-0.9,3.6-1.7c1.4-1.1,2.5-2.5,3.1-4.2
		c0.1-0.2,0.2-0.4,0.4-0.6C47.2,48.7,48.2,47.9,49.3,47.1z"/>
</g>
</svg>
