<?xml version="1.0" encoding="utf-8"?>
<!-- Generator: Adobe Illustrator 24.3.0, SVG Export Plug-In . SVG Version: 6.00 Build 0)  -->
<svg version="1.1" id="Layer_1" xmlns="http://www.w3.org/2000/svg" xmlns:xlink="http://www.w3.org/1999/xlink" x="0px" y="0px"
	 width="74.3px" height="74.3px" viewBox="0 0 74.3 74.3" style="enable-background:new 0 0 74.3 74.3;" xml:space="preserve">
<style type="text/css">
	.st0{fill:#FF2A40;}
	.st1{opacity:0.25;fill:#FFFFFF;enable-background:new    ;}
	.st2{opacity:0.15;fill:#FFFFFF;enable-background:new    ;}
</style>
<g>
	<path class="st0" d="M37.5,45.4c0-1.4,0-2.8,0-4.1c0-1.9,0-3.8,0-5.7c-0.3-8-5.2-11.3-10.3-12.8c-2.7-0.7-5.4-0.9-7.9,0.4
		c-1,0.5-1.8,1.2-2.7,1.9c-0.7,0.5-0.7,1-0.1,1.7c0.5,0.6,1.1,1.2,1.6,1.8c-0.8,0.7-1.5,1.3-2.3,2c-1.5,1.3-3,2.6-4.5,3.9
		c-1.5,1.3-1.8,2.7-1.2,4.5c0.4,1.1,1.1,2.1,2,2.9c1.2,1,2.6,1.4,4.2,0.9c1.4-0.5,2.9-0.8,4.5-1.3c0,0.9,0,1.7,0,2.5
		c-0.1,1.1-0.6,1.9-1.6,2.5c-1.5,1-1.5,1-3.1,0.1C9.3,42.4,5.8,36.3,5.9,28.3c0.1-9.4,7.4-17.7,16.6-19.2
		c11.1-1.9,21.6,5.4,23.3,16.6c1.3,8-1.6,14.5-7.9,19.5c-0.1,0.1-0.2,0.1-0.2,0.2C37.7,45.3,37.7,45.3,37.5,45.4z"/>
	<path class="st0" d="M22.6,41.9c0.9,0,1.7,0.1,2.5,0c1.6-0.2,2.9-1.1,3.7-2.5c0.6-1,1-2.1,1.4-3.2c0.2-0.6-0.1-1.1-0.7-1.3
		c-0.6-0.1-1,0.2-1.2,0.7c-0.3,0.8-0.5,1.6-0.9,2.3c-1,1.9-2.5,2.6-4.5,1.9c-1.3-0.5-2.5-0.3-3.7,0.1c-1.3,0.4-2.7,0.8-4,1.2
		c-0.2,0.1-0.5,0.1-0.7,0c-1.5-0.3-3-2.4-2.8-3.9c0.1-0.4,0.4-0.9,0.7-1.2c2.3-2,4.6-4,6.9-5.9c1.4-1.2,1.4-1.3,0.2-2.7
		c-0.4-0.4-0.7-0.8-1.2-1.3c1.1-0.9,2.3-1.6,3.6-1.8c4.4-0.4,8.2,1,11.2,4.3c1.6,1.8,2.2,4.1,2.3,6.4c0.1,2.6,0.1,5.1,0.1,7.7
		c0,4.8,0,9.7,0,14.5c0,0.3,0,0.6,0,0.9c-1,0-2,0-3.1,0c0-0.3,0-0.5,0-0.8c0-3.1,0-6.2,0-9.2c0-0.2,0-0.4,0-0.7
		c-0.1-0.6-0.4-0.9-1-0.9c-0.5,0-0.9,0.4-0.9,0.9c0,0.2,0,0.4,0,0.6c0,3.1,0,6.2,0,9.2c0,0.3,0,0.5,0,0.8c-4.4,0-8.6,0-13,0
		c0-0.8,0-1.5,0-2.2c0-1.4,0-2.9,0-4.3c0-1.2,0.5-2.1,1.4-2.9c0.3-0.2,0.6-0.5,1-0.6c2.3-1.3,3-3.3,2.8-5.8
		C22.7,42.2,22.7,42,22.6,41.9C22.7,41.8,22.7,41.8,22.6,41.9z M25,28.3c-1.5,0.1-3,1-3.8,2.7c-0.3,0.7-0.2,1.3,0.3,1.5
		c0.5,0.2,1,0,1.4-0.7c0.5-1.1,1.4-1.6,2.5-1.7c0.8-0.1,1.2-0.4,1.2-1C26.6,28.5,26.2,28.3,25,28.3z"/>
	<path class="st0" d="M37.5,51.8c0-1.3,0-2.5,0-3.6c0-0.3,0.3-0.6,0.6-0.7c4.9-3.3,8.1-7.8,9.4-13.5c2.6-11.1-3.9-22.5-14.7-26
		C20.2,3.9,7,11.7,4.4,24.7c-1.9,9.4,2.7,19.1,11.2,23.6c0.3,0.1,0.5,0.3,0.7,0.4c-0.3,1.2-0.5,2.3-0.8,3.5c-7-2.7-15.9-12-15-25.2
		C1.4,14.8,11,4.6,23.6,3.4c13.2-1.3,24.7,7.7,27.4,19.9C54,36.4,46.4,47.7,37.5,51.8z"/>
	<path class="st0" d="M49.2,54.6c1.8-2.1,3.6-4.1,5.3-6.2c0.2,0.1,0.3,0.2,0.4,0.3c5.8,5,11.6,10,17.4,15c1.3,1.1,1.8,2.5,1.4,4.1
		c-0.3,1.5-1.3,2.5-2.8,3c-1.5,0.5-2.8,0.2-4-0.8c-4.9-4.2-9.8-8.4-14.7-12.6C51.3,56.4,50.3,55.6,49.2,54.6z"/>
	<path class="st0" d="M41.8,68.6c-10.5,0-20.9,0-31.4,0c0-0.7-0.1-1.4,0-2.1c0.1-0.7,0.8-1.3,1.5-1.4c0.3,0,0.5,0,0.8,0
		c8.9,0,17.8,0,26.7,0c1.7,0,2.3,0.6,2.3,2.3C41.8,67.8,41.8,68.1,41.8,68.6z"/>
	<path class="st0" d="M38,63.1c-8,0-15.9,0-23.9,0c0-0.6,0-1.3,0.1-1.8c0.1-0.6,0.6-1,1.2-1c0.3,0,0.6,0,0.9,0c6.5,0,12.9,0,19.4,0
		c2.1,0,2.4,0.3,2.4,2.4C38,62.7,38,62.9,38,63.1z"/>
	<path class="st0" d="M52.4,47.9c-1.3,1.6-2.6,3.1-4,4.6c-1.2-1.1-2.5-2.1-3.7-3.2c1.3-1.5,2.6-3,4-4.6C50,45.7,51.2,46.7,52.4,47.9
		z"/>
</g>
</svg>
