<?xml version="1.0" encoding="utf-8"?>
<!-- Generator: Adobe Illustrator 24.3.0, SVG Export Plug-In . SVG Version: 6.00 Build 0)  -->
<svg version="1.1" id="Layer_1" xmlns="http://www.w3.org/2000/svg" xmlns:xlink="http://www.w3.org/1999/xlink" x="0px" y="0px"
	 width="74.3px" height="74.3px" viewBox="0 0 74.3 74.3" style="enable-background:new 0 0 74.3 74.3;" xml:space="preserve">
<style type="text/css">
	.st0{fill:#FF2A40;}
	.st1{opacity:0.25;fill:#FFFFFF;enable-background:new    ;}
	.st2{opacity:0.15;fill:#FFFFFF;enable-background:new    ;}
</style>
<g>
	<path class="st0" d="M72.9,30.9c-0.9-5.2-2.7-10-5.8-14.3c-4.3-6-9.9-10.3-16.8-12.8c-2.8-1-5.6-1.7-8.5-2c-0.3,0-0.4,0-0.4,0.4
		c0,2.4,0,4.7,0,7.1c0,0,0,0,0,0c0,2.4,0,4.7,0,7.1c0,0.3-0.1,0.4-0.4,0.4c-2.5,0-4.9,0-7.4,0c-0.6,0-0.6,0-0.6-0.6
		c0-4.7,0-9.3,0-14c0-0.3-0.1-0.4-0.4-0.4c-1.3,0.1-2.5,0.3-3.7,0.6C21.4,4.1,15,7.6,10,13.4C2.3,22.1-0.3,32.2,1.7,43.5
		C3.2,51.4,7,58.1,13.1,63.3C22.1,71,32.4,74.1,44,71.9c10.6-2,18.7-7.8,24.3-17c2.9-4.7,4.5-9.8,4.9-15.3
		C73.5,36.7,73.4,33.7,72.9,30.9z M33,20.9c0-0.9,0-1.7,0-2.6c0-0.2,0.1-0.3,0.3-0.3c2.6,0,5.2,0,7.8,0c0.2,0,0.3,0.1,0.3,0.3
		c0,0.9,0,1.7,0,2.6c0,0.3-0.1,0.3-0.3,0.3c-1.3,0-2.6,0-3.9,0c-1.3,0-2.6,0-3.8,0C33.1,21.2,33,21.2,33,20.9z M26.5,37.6
		c2.1-2.7,4-5.5,5.2-8.8c0.7-1.8,1.2-3.7,1.3-5.7c0-0.4,0.2-0.5,0.6-0.5c2.5,0,4.9,0,7.4,0c0.4,0,0.5,0,0.6,0.5
		c0.3,3.6,1.6,6.9,3.5,10c0.9,1.6,1.9,3,3.1,4.4c0.1,0.2,0.2,0.3,0,0.4c-4.3,4.4-7.3,9.7-9.5,15.4c-0.2,0.6-0.5,1.3-0.7,1.9
		c0,0-0.1,0-0.1,0c0-1.9,0-3.9,0-5.8c0-2.6,0-5.1,0-7.7c0-0.3,0.1-0.4,0.4-0.5c1.5-0.5,2.4-1.9,2.2-3.5c-0.2-1.4-1.6-2.6-3.1-2.6
		c-1.5,0-2.8,1-3.1,2.6c-0.3,1.5,0.7,3,2.2,3.5c0.2,0.1,0.3,0.1,0.3,0.4c0,4.6,0,9.1,0.1,13.7c0,0,0,0.1,0,0.2
		c-0.4-1.1-0.8-2.2-1.2-3.2c-2.1-5.3-5-10.1-9-14.2C26.3,37.9,26.3,37.8,26.5,37.6z M57.8,56.9c-1.1,0.6-2.3,0.9-3.6,1.1
		c-3,0.7-6.1,1-9.2,1.2c-3.8,0.3-7.6,0.3-11.4,0.2c-4.3-0.1-8.6-0.5-12.8-1.3c-1.3-0.3-2.6-0.6-3.8-1.1c-0.3-0.1-0.7-0.3-0.9-0.6
		c-0.5-0.5-0.5-0.9,0-1.3c0.3-0.3,0.7-0.5,1.1-0.6c1.5-0.6,3-0.9,4.5-1.1c4.1-0.6,8.2-0.8,12.4-0.8c0.1,0,0.2,0,0.3,0
		c0.1,0,0.1,0.1,0.1,0.1c0,0.1-0.1,0.1-0.1,0.1c-0.3,0-0.6,0-1,0.1c-3.4,0.1-6.9,0.4-10.3,0.9c-1.2,0.2-2.5,0.4-3.7,0.8
		c-0.3,0.1-0.6,0.2-0.9,0.4c-0.5,0.4-0.5,0.7,0,1.1c0.3,0.2,0.6,0.4,1,0.5c1.5,0.5,3.1,0.8,4.7,1c4.3,0.5,8.5,0.7,13.5,0.7
		c2.6,0,5.8-0.1,9.1-0.4c2.5-0.2,5-0.5,7.4-1.2c0.4-0.1,0.9-0.3,1.2-0.5c0.7-0.4,0.7-0.8,0-1.2c-0.8-0.5-1.7-0.7-2.5-0.9
		c-2.5-0.5-4.9-0.8-7.4-0.9c-1.8-0.1-3.6-0.2-5.4-0.3c-0.1,0-0.3,0.1-0.3-0.1c0-0.2,0.2-0.1,0.3-0.1c2.8,0.1,5.6,0.1,8.4,0.4
		c2.4,0.2,4.7,0.5,7,1c0.8,0.2,1.5,0.4,2.2,0.8c0.4,0.2,1,0.5,1,1.1C58.7,56.4,58.2,56.7,57.8,56.9z"/>
</g>
</svg>
