<?xml version="1.0" encoding="utf-8"?>
<!-- Generator: Adobe Illustrator 24.3.0, SVG Export Plug-In . SVG Version: 6.00 Build 0)  -->
<svg version="1.1" id="Layer_1" xmlns="http://www.w3.org/2000/svg" xmlns:xlink="http://www.w3.org/1999/xlink" x="0px" y="0px"
	 width="74.3px" height="74.3px" viewBox="0 0 74.3 74.3" style="enable-background:new 0 0 74.3 74.3;" xml:space="preserve">
<style type="text/css">
	.st0{fill:#FF2A40;}
	.st1{opacity:0.25;fill:#FFFFFF;enable-background:new    ;}
	.st2{opacity:0.15;fill:#FFFFFF;enable-background:new    ;}
</style>
<g>
	<path class="st0" d="M51.4,66.8L50,62.6H24.3l-1.4,4.2h-7c-1.2,0-2.1,0.9-2.1,2.1s0.9,2.1,2.1,2.1h42.4c1.2,0,2.1-0.9,2.1-2.1
		s-0.9-2.1-2.1-2.1H51.4z M13.8,24.4h8.5v4.2h-8.5V24.4z M13.8,15.9h8.5v4.2h-8.5V15.9z M13.8,32.9h8.5v4.2h-8.5V32.9z M58.4,20.2
		c-1.2,0-2.1,1-2.1,2.1s1,2.1,2.1,2.1s2.1-1,2.1-2.1C60.5,21.1,59.5,20.2,58.4,20.2z"/>
	<path class="st0" d="M73.3,9.6c0-3.5-2.9-6.4-6.4-6.4H7.3C3.8,3.2,1,6.1,1,9.6v36.1h72.4V9.6z M49.9,11.7c1.2,0,2.1,0.9,2.1,2.1
		s-0.9,2.1-2.1,2.1s-2.1-0.9-2.1-2.1S48.7,11.7,49.9,11.7z M41.4,11.7c1.2,0,2.1,0.9,2.1,2.1s-0.9,2.1-2.1,2.1s-2.1-0.9-2.1-2.1
		S40.2,11.7,41.4,11.7z M26.5,39.3c0,1.2-0.9,2.1-2.1,2.1H11.7c-1.2,0-2.1-0.9-2.1-2.1V13.8c0-1.2,0.9-2.1,2.1-2.1h12.7
		c1.2,0,2.1,0.9,2.1,2.1V39.3z M32.9,11.7c1.2,0,2.1,0.9,2.1,2.1s-0.9,2.1-2.1,2.1c-1.2,0-2.1-0.9-2.1-2.1S31.7,11.7,32.9,11.7z
		 M59.9,40.8c-0.8,0.8-2.2,0.8-3,0L54.1,38l-2.7,2.7c-0.4,0.5-1.1,0.7-1.7,0.6c-0.6-0.1-1.2-0.4-1.6-0.9l-6.7-10.1l-6.7,10.1
		c-0.6,1-1.9,1.2-2.9,0.6c-1-0.7-1.2-2-0.6-2.9l8.5-12.7c0.8-1.2,2.7-1.2,3.5,0l7,10.6l2.4-2.4c0.8-0.8,2.2-0.8,3,0l4.2,4.2
		C60.7,38.6,60.7,39.9,59.9,40.8L59.9,40.8z M58.4,28.7c-3.5,0-6.4-2.9-6.4-6.4s2.9-6.4,6.4-6.4s6.4,2.9,6.4,6.4
		S61.9,28.7,58.4,28.7z M7.3,58.4H67c3.5,0,6.4-2.9,6.4-6.4v-2.1H1V52C1,55.5,3.8,58.4,7.3,58.4z"/>
</g>
</svg>
